<svg width="139" height="140" viewBox="0 0 139 140" fill="none" xmlns="http://www.w3.org/2000/svg">
<path d="M34.0834 92.0833C34.0834 94.9565 35.2247 97.712 37.2564 99.7437C39.288 101.775 42.0435 102.917 44.9167 102.917C47.7899 102.917 50.5454 101.775 52.577 99.7437C54.6087 97.712 55.75 94.9565 55.75 92.0833M34.0834 92.0833C34.0834 89.2102 35.2247 86.4547 37.2564 84.423C39.288 82.3914 42.0435 81.25 44.9167 81.25C47.7899 81.25 50.5454 82.3914 52.577 84.423C54.6087 86.4547 55.75 89.2102 55.75 92.0833M34.0834 92.0833H23.25V70.4167M55.75 92.0833H88.25M88.25 92.0833C88.25 94.9565 89.3914 97.712 91.4231 99.7437C93.4547 101.775 96.2102 102.917 99.0834 102.917C101.957 102.917 104.712 101.775 106.744 99.7437C108.775 97.712 109.917 94.9565 109.917 92.0833M88.25 92.0833C88.25 89.2102 89.3914 86.4547 91.4231 84.423C93.4547 82.3914 96.2102 81.25 99.0834 81.25C101.957 81.25 104.712 82.3914 106.744 84.423C108.775 86.4547 109.917 89.2102 109.917 92.0833M109.917 92.0833H120.75V59.5833M17.8334 27.0833H77.4167V92.0833M120.75 59.5833H77.4167M120.75 59.5833L104.5 32.5H77.4167M23.25 48.75H44.9167" stroke="white" stroke-width="5" stroke-linecap="round" stroke-linejoin="round"/>
<rect x="85" y="79" width="46" height="44" rx="22" fill="#0BA5EC"/>
<path d="M95.0834 124.5C90.3587 125.564 87.3334 127.198 87.3334 129.03C87.3334 132.235 96.5862 134.833 108 134.833C119.414 134.833 128.667 132.235 128.667 129.03C128.667 127.198 125.641 125.564 120.917 124.5M114.458 101.25C114.458 104.817 111.567 107.708 108 107.708C104.433 107.708 101.542 104.817 101.542 101.25C101.542 97.6832 104.433 94.7917 108 94.7917C111.567 94.7917 114.458 97.6832 114.458 101.25ZM111.248 123.192C110.377 124.031 109.212 124.5 108 124.5C106.788 124.5 105.624 124.031 104.753 123.192C96.7737 115.46 86.0809 106.824 91.2955 94.2846C94.1149 87.5049 100.883 83.1667 108 83.1667C115.118 83.1667 121.886 87.5049 124.705 94.2846C129.913 106.808 119.247 115.487 111.248 123.192Z" stroke="white" stroke-width="5" stroke-linecap="round"/>
</svg>
